<svg version="1.0" xmlns="http://www.w3.org/2000/svg" width="358.000000pt" height="230.000000pt" viewBox="0 0 358.000000 230.000000" preserveAspectRatio="xMidYMid meet">

<g transform="translate(0.000000,230.000000) scale(0.100000,-0.100000)" fill="#ffffff" stroke="none">
<path d="M1950 1913 c-22 -11 -36 -27 -38 -40 -4 -25 7 -30 26 -11 19 19 23 3 11 -45 -9 -30 -17 -43 -26 -40 -23 9 -15 -46 12 -72 51 -52 145 -16 145 54 0 16 -4 33 -10 36 -5 3 -7 25 -4 48 5 33 2 46 -12 59 -30 26 -66 30 -104 11z m69 -42 c8 -5 11 -16 8 -25 -7 -17 -27 -22 -27 -7 0 5 -3 16 -6 25 -7 18 4 20 25 7z m19 -103 c4 -21 -45 -55 -59 -41 -6 6 -6 19 1 37 7 20 16 27 32 24 13 -2 24 -11 26 -20z" fill="#ffffff"/>
<path d="M1477 1874 c-3 -3 -3 -12 -1 -19 3 -7 1 -16 -5 -20 -6 -3 -11 -15 -11 -26 0 -15 5 -19 18 -15 15 5 20 -3 31 -43 7 -28 19 -55 27 -62 22 -18 63 -2 70 27 8 30 -12 57 -22 31 -10 -28 -23 -19 -30 19 -5 28 -3 39 10 46 25 14 21 41 -5 33 -14 -5 -27 0 -40 14 -20 22 -31 25 -42 15z" fill="#ffffff"/>
<path d="M1690 1803 c0 -62 22 -97 56 -89 19 5 24 2 24 -11 0 -10 -5 -25 -10 -33 -9 -13 -12 -13 -21 3 -13 22 -29 13 -29 -18 0 -35 34 -51 65 -31 42 28 51 95 23 169 -14 36 -25 34 -41 -5 l-14 -33 -14 44 c-20 63 -39 65 -39 4z" fill="#ffffff"/>
<path d="M2182 1783 c-23 -85 -26 -123 -9 -123 14 0 38 52 42 90 1 8 7 25 14 38 14 26 7 42 -17 42 -12 0 -21 -14 -30 -47z" fill="#ffffff"/>
<path d="M2364 1787 c-3 -8 -16 -18 -30 -21 -26 -7 -33 -26 -9 -26 19 0 19 -3 -5 -50 -27 -53 -26 -88 3 -99 26 -11 60 7 65 34 3 14 0 15 -17 6 -28 -16 -33 0 -10 36 14 21 25 29 38 26 27 -7 37 16 13 33 -12 8 -18 21 -15 32 6 24 -24 51 -33 29z" fill="#ffffff"/>
<path d="M1325 1758 c-27 -15 -35 -28 -35 -60 0 -31 40 -64 65 -54 8 3 15 1 15 -4 0 -6 -8 -10 -17 -10 -16 0 -16 -1 -1 -17 26 -26 68 -3 68 36 0 34 -12 44 -51 43 -32 -1 -47 14 -30 31 8 8 14 8 23 -1 18 -18 28 -15 28 8 0 10 -9 24 -19 30 -24 12 -21 12 -46 -2z" fill="#ffffff"/>
<path d="M1126 1645 c-32 -30 -33 -52 -3 -96 29 -43 60 -49 83 -15 9 14 23 26 30 26 18 0 18 5 -3 38 -25 40 -55 72 -68 72 -7 0 -24 -11 -39 -25z m49 -57 c4 -17 3 -28 -3 -28 -12 0 -22 24 -22 53 0 27 16 11 25 -25z" fill="#ffffff"/>
<path d="M2485 1605 c-27 -26 -33 -73 -13 -93 14 -14 68 -16 68 -2 0 6 -9 10 -19 10 -11 0 -23 5 -26 10 -4 6 8 10 27 10 39 0 58 15 58 45 0 49 -55 60 -95 20z m60 -25 c3 -5 -1 -10 -10 -10 -9 0 -13 5 -10 10 3 6 8 10 10 10 2 0 7 -4 10 -10z" fill="#ffffff"/>
<path d="M945 1574 c-64 -54 -75 -67 -75 -90 0 -30 7 -30 37 -2 l23 21 54 -51 c48 -46 86 -66 86 -45 0 11 -51 77 -77 99 -21 18 -23 25 -14 42 13 24 15 52 4 52 -5 0 -21 -12 -38 -26z" fill="#ffffff"/>
<path d="M1673 1525 c-110 -24 -189 -70 -283 -165 -61 -60 -94 -104 -117 -151 -116 -238 -71 -505 116 -689 73 -72 165 -129 231 -144 14 -4 -8 9 -48 28 -140 67 -230 156 -292 288 -155 332 20 710 375 814 37 10 94 17 150 17 171 0 292 -50 416 -173 120 -119 169 -238 169 -412 0 -171 -64 -317 -190 -431 -92 -83 -216 -135 -370 -156 l-75 -10 88 5 c521 29 757 667 380 1025 -151 143 -347 198 -550 154z" fill="#ffffff"/>
<path d="M1705 1500 c-125 -25 -233 -86 -318 -180 -208 -230 -191 -591 36 -796 342 -307 871 -120 947 333 48 289 -153 577 -445 638 -75 16 -156 18 -220 5z m260 -102 c126 -41 222 -129 284 -258 35 -74 36 -77 36 -200 0 -124 0 -126 -37 -203 -51 -106 -131 -186 -235 -234 -68 -32 -90 -37 -176 -41 -120 -6 -201 13 -285 67 -208 135 -286 399 -182 618 40 85 137 185 218 225 120 59 250 68 377 26z" fill="#ffffff"/>
<path d="M1726 1379 c-80 -13 -187 -72 -243 -132 -243 -267 -101 -684 256 -748 131 -23 285 26 380 121 61 61 117 172 130 257 36 235 -126 459 -363 502 -67 12 -89 12 -160 0z m83 -155 c28 -37 51 -70 51 -74 0 -4 -21 -10 -47 -13 -37 -4 -58 0 -95 19 -25 13 -50 29 -53 35 -7 10 71 99 86 99 4 0 30 -30 58 -66z m121 27 c0 -10 -7 -24 -16 -32 -13 -10 -17 -10 -25 2 -18 29 -9 41 34 48 4 0 7 -7 7 -18z m194 -230 c17 -19 17 -20 -3 -30 -27 -15 -28 -15 -40 19 -9 26 -8 30 8 30 10 0 26 -9 35 -19z m-246 -45 c6 -7 -42 -86 -53 -86 -6 0 -28 12 -49 26 l-39 27 39 24 c27 17 48 22 68 18 16 -3 31 -7 34 -9z m247 -63 c19 -9 35 -20 35 -24 0 -11 -56 -49 -72 -49 -33 1 -40 16 -22 53 10 21 19 37 21 37 1 0 18 -8 38 -17z m-378 -225 c13 -12 23 -27 23 -33 0 -17 -47 -58 -58 -51 -15 9 -25 62 -17 86 8 26 23 25 52 -2z m175 -26 l28 -26 -28 -18 c-15 -10 -31 -18 -37 -18 -9 0 -45 74 -45 93 0 15 56 -6 82 -31z" fill="#ffffff"/>
<path d="M2632 1484 c-24 -17 -28 -43 -11 -77 10 -22 10 -22 -6 -2 -13 16 -17 17 -24 6 -10 -16 -3 -42 13 -53 41 -28 90 17 67 60 -15 28 -14 32 9 32 17 0 19 -4 14 -26 -8 -32 11 -30 34 4 13 19 11 23 -12 47 -29 29 -52 32 -84 9z" fill="#ffffff"/>
<path d="M2497 1032 c-50 -55 -47 -176 6 -220 29 -24 124 5 169 50 22 22 47 38 60 38 13 0 124 -7 247 -16 216 -16 225 -16 238 2 17 23 17 45 -1 69 -13 17 -23 18 -261 5 l-249 -13 -26 31 c-17 20 -47 39 -85 52 -71 24 -78 25 -98 2z" fill="#ffffff"/>
<path d="M1110 1000 c0 -6 -113 -10 -319 -10 l-320 0 -20 -26 c-27 -34 -26 -50 4 -79 l24 -25 316 0 c203 0 315 -4 315 -10 0 -5 21 -10 46 -10 38 0 45 3 40 16 -3 9 -6 47 -6 85 l0 69 -40 0 c-22 0 -40 -4 -40 -10z m-512 -49 c8 -5 12 -17 10 -27 -3 -16 -14 -20 -64 -22 -51 -2 -63 0 -68 15 -5 11 -1 22 10 30 20 15 92 17 112 4z" fill="#ffffff"/>
<path d="M1670 360 c25 -8 87 -13 79 -6 -2 2 -26 6 -54 9 -34 4 -42 3 -25 -3z" fill="#ffffff"/>
</g>
</svg>